# File created by Blade
# Date/Time:  Mon Sep 22 15:50:36 2014
# Frame Rate: 120.000 fps
#------------------------------------------------------
:FULLY-SPECIFIED
:DEGREES
3911
root 3.122771 37.008028 4.018805 2.798429 10.133569 4.629181
RightUpLeg 10.223696 -14.589781 -7.467492
RightLeg -5.938052 -0.000000 0.000000
RightFoot -15.156419 -19.149595 18.352519
RightToeBase 12.733410 -0.000000 -0.000000
LeftUpLeg 4.793240 -9.924467 -2.395586
LeftLeg -3.149702 -0.000000 0.000000
LeftFoot -8.805050 12.539644 -16.927537
LeftToeBase 7.723219 -0.000000 -0.000000
Spine -2.598747 28.468117 0.570525
RightShoulder 4.307506 -32.262781 -16.108292
RightArm 11.545639 -28.517955 67.869274
RightForeArm 13.953372 -0.000000 47.573656
RightHand 3.221988 0.000000 -1.355386
RightHandThumb1 -24.326973 -0.000000 -32.862282
LeftShoulder -39.638358 32.934283 2.222628
LeftArm 60.548030 -73.779601 -98.372625
LeftForeArm -33.595004 -0.000000 99.552122
LeftHand -12.922152 -0.000000 18.796365
LeftHandThumb1 -26.253704 0.000000 33.147579
Head 20.645818 -11.552928 4.612027
3912
root 3.120715 37.008587 4.013630 2.808487 10.108263 4.623571
RightUpLeg 10.197180 -14.626994 -7.459471
RightLeg -5.940774 -0.000000 0.000000
RightFoot -15.121528 -19.124258 18.298639
RightToeBase 12.763034 -0.000000 -0.000000
LeftUpLeg 4.780065 -9.919896 -2.385781
LeftLeg -3.161216 -0.000000 0.000000
LeftFoot -8.795682 12.544192 -16.930564
LeftToeBase 7.734187 -0.000000 -0.000000
Spine -2.563194 28.455167 0.565196
RightShoulder 4.290806 -32.245123 -16.114711
RightArm 11.556548 -28.569016 67.877739
RightForeArm 13.898154 -0.000000 47.575182
RightHand 3.241578 -0.000000 -1.362097
RightHandThumb1 -24.326973 -0.000000 -32.862282
LeftShoulder -39.634869 32.908863 2.237734
LeftArm 60.371285 -73.785729 -98.174407
LeftForeArm -33.603935 -0.000000 99.546928
LeftHand -12.922929 -0.000000 18.856845
LeftHandThumb1 -26.253704 0.000000 33.147579
Head 20.546292 -11.522191 4.628091
3913
root 3.118833 37.009840 4.005505 2.811379 10.053252 4.610275
RightUpLeg 10.156823 -14.602262 -7.442304
RightLeg -5.926182 -0.000000 0.000000
RightFoot -15.101740 -19.111026 18.277755
RightToeBase 12.766936 -0.000000 -0.000000
LeftUpLeg 4.769678 -9.892442 -2.373852
LeftLeg -3.170829 -0.000000 0.000000
LeftFoot -8.793506 12.575421 -16.932563
LeftToeBase 7.752870 -0.000000 -0.000000
Spine -2.512228 28.471919 0.591104
RightShoulder 4.321944 -32.215890 -16.163453
RightArm 11.529629 -28.603314 67.916285
RightForeArm 13.921879 -0.000000 47.585856
RightHand 3.253973 -0.000000 -1.387765
RightHandThumb1 -24.326973 -0.000000 -32.862282
LeftShoulder -39.639547 32.910739 2.227915
LeftArm 60.518299 -73.760081 -98.338152
LeftForeArm -33.611564 0.000000 99.546585
LeftHand -12.947384 0.000000 18.943682
LeftHandThumb1 -26.253704 0.000000 33.147579
Head 20.471598 -11.500757 4.597809
3914
root 3.116884 37.011280 3.997131 2.815959 9.997135 4.590411
RightUpLeg 10.112807 -14.584647 -7.420457
RightLeg -5.906833 -0.000000 0.000000
RightFoot -15.076366 -19.076579 18.270306
RightToeBase 12.728403 -0.000000 -0.000000
LeftUpLeg 4.757253 -9.861896 -2.356873
LeftLeg -3.179206 -0.000000 0.000000
LeftFoot -8.780731 12.612773 -16.914055
LeftToeBase 7.713977 -0.000000 -0.000000
Spine -2.464357 28.498046 0.624463
RightShoulder 4.343066 -32.190602 -16.212754
RightArm 11.499529 -28.641274 67.953363
RightForeArm 13.946305 -0.000000 47.602679
RightHand 3.232323 -0.000000 -1.397805
RightHandThumb1 -24.326973 -0.000000 -32.862282
LeftShoulder -39.627034 32.902747 2.226259
LeftArm 60.554684 -73.760579 -98.385161
LeftForeArm -33.710537 -0.000000 99.529561
LeftHand -12.928242 -0.000000 18.769925
LeftHandThumb1 -26.253704 0.000000 33.147579
Head 20.412475 -11.485226 4.561594
3915
root 3.113481 37.012647 3.989145 2.824309 9.951839 4.585705
RightUpLeg 10.074705 -14.568126 -7.407220
RightLeg -5.905073 -0.000000 0.000000
RightFoot -15.060907 -19.079130 18.239413
RightToeBase 12.745085 -0.000000 -0.000000
LeftUpLeg 4.739164 -9.859215 -2.346427
LeftLeg -3.182175 -0.000000 0.000000
LeftFoot -8.787067 12.626873 -16.959579
LeftToeBase 7.779348 -0.000000 -0.000000
Spine -2.422357 28.507282 0.623277
RightShoulder 4.377345 -32.159053 -16.250268
RightArm 11.458565 -28.657453 67.998037
RightForeArm 13.967880 -0.000000 47.613807
RightHand 3.251151 -0.000000 -1.330611
RightHandThumb1 -24.326973 -0.000000 -32.862282
LeftShoulder -39.626888 32.900742 2.228595
LeftArm 60.669623 -73.756299 -98.512576
LeftForeArm -33.788834 -0.000000 99.519651
LeftHand -12.883354 -0.000000 18.658104
LeftHandThumb1 -26.253704 0.000000 33.147579
Head 20.351925 -11.463400 4.553540
3916
root 3.111906 37.014017 3.979565 2.843875 9.886390 4.581036
RightUpLeg 10.017289 -14.557152 -7.403660
RightLeg -5.886592 -0.000000 0.000000
RightFoot -15.035524 -19.015313 18.243509
RightToeBase 12.669957 -0.000000 -0.000000
LeftUpLeg 4.707557 -9.805127 -2.340328
LeftLeg -3.184032 -0.000000 0.000000
LeftFoot -8.772112 12.644486 -16.955693
LeftToeBase 7.741957 -0.000000 -0.000000
Spine -2.393739 28.539015 0.622021
RightShoulder 4.397695 -32.167044 -16.294320
RightArm 11.484178 -28.693548 67.997309
RightForeArm 14.020623 -0.000000 47.610167
RightHand 3.257674 -0.000000 -1.305763
RightHandThumb1 -24.326973 -0.000000 -32.862282
LeftShoulder -39.644705 32.942797 2.193064
LeftArm 60.908458 -73.744826 -98.756782
LeftForeArm -33.831237 0.000000 99.518507
LeftHand -12.908938 0.000000 18.563648
LeftHandThumb1 -26.253704 0.000000 33.147579
Head 20.297307 -11.454169 4.529038
3917
root 3.108510 37.015547 3.973687 2.849813 9.861287 4.563379
RightUpLeg 9.993849 -14.557857 -7.381872
RightLeg -5.892868 -0.000000 0.000000
RightFoot -15.013177 -18.994143 18.248623
RightToeBase 12.705968 -0.000000 -0.000000
LeftUpLeg 4.690391 -9.798216 -2.317257
LeftLeg -3.185529 -0.000000 0.000000
LeftFoot -8.769494 12.654701 -16.985639
LeftToeBase 7.752339 -0.000000 -0.000000
Spine -2.363017 28.536798 0.633866
RightShoulder 4.418935 -32.162851 -16.323955
RightArm 11.465499 -28.707477 68.013951
RightForeArm 14.004048 -0.000000 47.630803
RightHand 3.211219 -0.000000 -1.244162
RightHandThumb1 -24.326973 -0.000000 -32.862282
LeftShoulder -39.645914 32.922823 2.202803
LeftArm 60.971481 -73.725952 -98.811112
LeftForeArm -33.942656 -0.000000 99.512106
LeftHand -12.865103 -0.000000 18.600285
LeftHandThumb1 -26.253704 0.000000 33.147579
Head 20.264155 -11.446699 4.519557
3918
root 3.104232 37.016435 3.966753 2.852581 9.823634 4.555827
RightUpLeg 9.972702 -14.544176 -7.369742
RightLeg -5.901621 -0.000000 0.000000
RightFoot -14.990783 -18.968761 18.242058
RightToeBase 12.709970 -0.000000 -0.000000
LeftUpLeg 4.680056 -9.780206 -2.304150
LeftLeg -3.193289 -0.000000 0.000000
LeftFoot -8.751985 12.665609 -16.994899
LeftToeBase 7.714013 -0.000000 -0.000000
Spine -2.323700 28.550038 0.632230
RightShoulder 4.435823 -32.190574 -16.359444
RightArm 11.505552 -28.766829 67.984717
RightForeArm 14.019499 -0.000000 47.644463
RightHand 3.181569 -0.000000 -1.292355
RightHandThumb1 -24.326973 -0.000000 -32.862282
LeftShoulder -39.611332 32.925780 2.224863
LeftArm 61.039616 -73.749610 -98.896621
LeftForeArm -33.948579 -0.000000 99.527643
LeftHand -12.858833 -0.000000 18.670076
LeftHandThumb1 -26.253704 0.000000 33.147579
Head 20.237862 -11.444510 4.509821
3919
root 3.100445 37.017238 3.960238 2.863636 9.778645 4.540379
RightUpLeg 9.939748 -14.515639 -7.348015
RightLeg -5.908040 -0.000000 0.000000
RightFoot -14.965409 -18.943884 18.235007
RightToeBase 12.763717 -0.000000 -0.000000
LeftUpLeg 4.658493 -9.747015 -2.282402
LeftLeg -3.193845 -0.000000 0.000000
LeftFoot -8.764253 12.666402 -17.022404
LeftToeBase 7.766227 -0.000000 -0.000000
Spine -2.298384 28.563477 0.630729
RightShoulder 4.458168 -32.191134 -16.390586
RightArm 11.508465 -28.818160 67.969161
RightForeArm 14.025311 -0.000000 47.659038
RightHand 3.171073 -0.000000 -1.277460
RightHandThumb1 -24.326973 -0.000000 -32.862282
LeftShoulder -39.603649 32.906761 2.245278
LeftArm 61.039319 -73.763602 -98.900154
LeftForeArm -33.929076 -0.000000 99.546056
LeftHand -12.837855 -0.000000 18.668974
LeftHandThumb1 -26.253704 0.000000 33.147579
Head 20.207051 -11.447466 4.504162
3920
root 3.095697 37.017485 3.953796 2.868562 9.743215 4.522549
RightUpLeg 9.921701 -14.497750 -7.318146
RightLeg -5.937575 -0.000000 0.000000
RightFoot -14.929274 -18.966007 18.212332
RightToeBase 12.656557 -0.000000 -0.000000
LeftUpLeg 4.641833 -9.709074 -2.258785
LeftLeg -3.192978 -0.000000 0.000000
LeftFoot -8.763641 12.668423 -17.002282
LeftToeBase 7.755685 -0.000000 -0.000000
Spine -2.263435 28.569125 0.634583
RightShoulder 4.475117 -32.187132 -16.419684
RightArm 11.511961 -28.859674 67.962840
RightForeArm 14.054615 -0.000000 47.661318
RightHand 3.159786 -0.000000 -1.300550
RightHandThumb1 -24.326973 -0.000000 -32.862282
LeftShoulder -39.592277 32.895512 2.258369
LeftArm 61.078088 -73.785256 -98.945713
LeftForeArm -33.865041 -0.000000 99.577278
LeftHand -12.833953 -0.000000 18.716359
LeftHandThumb1 -26.253704 0.000000 33.147579
Head 20.178762 -11.455473 4.496810
